<?xml version="1.0" encoding="UTF-8"?>
<!-- Simplified placeholder illustration (replace with your actual image in public/assets/) -->
<svg width="900" height="700" viewBox="0 0 900 700" xmlns="http://www.w3.org/2000/svg" preserveAspectRatio="xMidYMid meet">
  <defs>
    <linearGradient id="g1" x1="0" x2="1" y1="0" y2="1">
      <stop offset="0" stop-color="#eef8ff"/>
      <stop offset="1" stop-color="#fff5f9"/>
    </linearGradient>
  </defs>
  <rect width="900" height="700" fill="url(#g1)"/>
  <g transform="translate(260,80)">
    <rect x="0" y="0" width="380" height="520" rx="16" fill="#ffffff" stroke="#eef2f7" />
    <rect x="18" y="18" width="44" height="10" rx="6" fill="#ff6b6b"/>
    <circle cx="44" cy="40" r="24" fill="#7c3aed" />
    <rect x="88" y="34" width="220" height="12" rx="6" fill="#e6eef6"/>
    <rect x="18" y="84" width="344" height="12" rx="6" fill="#e6eef6"/>
    <rect x="18" y="114" width="320" height="10" rx="6" fill="#f1f5f9"/>
    <rect x="18" y="150" width="300" height="12" rx="6" fill="#e6eef6"/>
    <rect x="18" y="186" width="180" height="12" rx="6" fill="#e6eef6"/>
    <rect x="18" y="240" width="320" height="12" rx="6" fill="#f1f5f9"/>
    <rect x="18" y="280" width="344" height="12" rx="6" fill="#e6eef6"/>
  </g>
  <!-- soft shadow on right side -->
  <ellipse cx="620" cy="620" rx="260" ry="40" fill="rgba(15,23,42,0.04)"/>
</svg>
