<?xml version="1.0" encoding="UTF-8" standalone="no"?>
<svg width="1440" height="320" viewBox="0 0 1440 320" version="1.1" xmlns="http://www.w3.org/2000/svg">
    <g stroke="none" stroke-width="1" fill="none" fill-rule="evenodd">
        <path d="M1440,320 L1380,320 C1320,320 1200,320 1080,320 C960,320 840,320 720,320 C600,320 480,320 360,320 C240,320 120,320 60,320 L0,320 L0,0 L60,0 C120,0 240,0 360,0 C480,0 600,0 720,0 C840,0 960,0 1080,0 C1200,0 1320,0 1380,0 L1440,0 L1440,320 Z" fill="#FFFFFF" fill-rule="nonzero" opacity="0.1"></path>
        <path d="M0,192 L60,213.3 C120,235 240,277 360,282.7 C480,288 600,256 720,245.3 C840,235 960,245 1080,213.3 C1200,181 1320,107 1380,69.3 L1440,32 L1440,320 L1380,320 C1320,320 1200,320 1080,320 C960,320 840,320 720,320 C600,320 480,320 360,320 C240,320 120,320 60,320 L0,320 L0,192 Z" fill="#FFFFFF" fill-rule="nonzero" opacity="0.1"></path>
    </g>
</svg>
