<?xml version="1.0" encoding="UTF-8" standalone="no"?>
<svg width="1440" height="320" viewBox="0 0 1440 320" version="1.1" xmlns="http://www.w3.org/2000/svg">
    <g stroke="none" stroke-width="1" fill="none" fill-rule="evenodd">
        <path d="M0,192L60,186.7C120,181,240,171,360,181.3C480,192,600,224,720,229.3C840,235,960,213,1080,186.7C1200,160,1320,128,1380,112L1440,96L1440,320L1380,320C1320,320,1200,320,1080,320C960,320,840,320,720,320C600,320,480,320,360,320C240,320,120,320,60,320L0,320Z" fill="#FFFFFF" fill-rule="nonzero"></path>
    </g>
</svg>
