<?xml version="1.0" encoding="UTF-8"?>
<svg width="980" height="700" viewBox="0 0 980 700" fill="none" xmlns="http://www.w3.org/2000/svg">
  <rect width="980" height="700" rx="18" fill="#fff" />
  <g transform="translate(40,30)">
    <rect x="0" y="40" width="640" height="560" rx="10" fill="#ffffff" stroke="#e9f1fb"/>
    <rect x="20" y="70" width="520" height="120" rx="6" fill="#f8fafc" />
    <circle cx="560" cy="80" r="64" fill="#e6f3ff" />
    <rect x="80" y="210" width="520" height="18" rx="4" fill="#f1f5f9" />
    <rect x="80" y="240" width="380" height="12" rx="4" fill="#f1f5f9" />
    <rect x="80" y="262" width="440" height="12" rx="4" fill="#f1f5f9" />
    <rect x="80" y="290" width="520" height="12" rx="4" fill="#f1f5f9" />

    <g transform="translate(10,230)">
      <rect x="-10" y="150" width="200" height="60" rx="10" fill="#fff" stroke="#e6eefb"/>
      <text x="20" y="190" fill="#0b6fff" font-family="Arial" font-size="22" font-weight="700">81%</text>
    </g>

    <g transform="translate(520,40)">
      <rect x="20" y="120" width="260" height="140" rx="10" fill="#fff" stroke="#e6eefb"/>
      <text x="40" y="155" fill="#334155" font-family="Arial" font-size="18" font-weight="700">Skills</text>
      <rect x="40" y="175" width="160" height="28" rx="8" fill="#f1f5f9"/>
      <rect x="40" y="210" width="120" height="28" rx="8" fill="#f1f5f9"/>
    </g>

    <g transform="translate(440,10)">
      <ellipse cx="120" cy="40" rx="110" ry="40" fill="#e6f7ff"/>
    </g>
  </g>
</svg>
