<svg width="120" height="36" viewBox="0 0 120 36" fill="none" xmlns="http://www.w3.org/2000/svg">
  <path d="M72.8 28.8H68.2V18.4C68.2 17 68.1 16 67.9 15.2C67.7 14.4 67.4 13.9 66.9 13.5C66.4 13.1 65.7 12.9 64.8 12.9C63.8 12.9 62.9 13.2 62.2 13.7C61.5 14.2 61 14.9 60.7 15.7C60.4 16.5 60.3 17.8 60.3 19.5V28.8H55.7V7.2H60.3V14.8C61.3 13.6 62.3 12.7 63.4 12.2C64.5 11.7 65.7 11.4 67 11.4C68.4 11.4 69.6 11.6 70.6 12.1C71.6 12.6 72.3 13.2 72.9 13.9C73.5 14.7 73.9 15.5 74.1 16.3C74.3 17.1 74.4 18.3 74.4 19.8V28.8H72.8ZM51.2 28.8H46.6V7.2H51.2V28.8ZM49 4.9C48.2 4.9 47.5 4.6 46.9 4.1C46.3 3.5 46 2.9 46 2.1C46 1.4 46.3 0.7 46.9 0.2C47.5 -0.3 48.2 -0.6 49 -0.6C49.8 -0.6 50.5 -0.3 51.1 0.2C51.7 0.7 52 1.4 52 2.1C52 2.9 51.7 3.5 51.1 4.1C50.5 4.6 49.8 4.9 49 4.9ZM106.7 11.9L102 26.1L97.1 11.9H92.1L99.7 31.1L99.8 31.4C99.3 32.7 98.8 33.6 98.4 34.1C97.9 34.6 97.1 34.8 96.1 34.8H93.2V38.5H96.1C96.9 38.5 97.6 38.4 98.3 38.2C98.9 38 99.5 37.7 100 37.2C100.5 36.7 101 36.2 101.4 35.5C101.8 34.8 102.2 33.9 102.6 32.9L112 11.9H106.7ZM91 19.2C91 20.7 90.8 22 90.5 23.1C90.2 24.1 89.7 25 89.1 25.8C88.5 26.5 87.8 27 87 27.4C86.2 27.8 85.2 28 84.2 28C83.2 28 82.3 27.8 81.6 27.4C80.8 27 80.2 26.5 79.7 25.8C79.2 25.2 78.7 24.3 78.4 23.3C78.1 22.3 77.9 21.1 77.9 19.6V11.9H82.5V19.5C82.5 20.8 82.6 21.7 82.8 22.4C83 23.1 83.3 23.6 83.8 24C84.3 24.4 84.9 24.5 85.7 24.5C86.5 24.5 87.2 24.3 87.7 23.9C88.2 23.5 88.6 23 88.8 22.2C89 21.5 89.1 20.4 89.1 18.9V11.9H93.7V19.2H91ZM42.6 25.3C41.8 26.4 40.9 27.3 39.7 27.8C38.6 28.4 37.3 28.6 35.8 28.6C34.9 28.6 34.1 28.5 33.3 28.3C32.5 28.1 31.8 27.8 31.1 27.4C30.5 27 29.9 26.5 29.5 25.9C29 25.3 28.6 24.7 28.3 24C28 23.3 27.8 22.6 27.6 21.8C27.5 21 27.4 20.2 27.4 19.3V19.2C27.4 18.3 27.5 17.5 27.7 16.7C27.9 15.9 28.1 15.2 28.4 14.5C28.7 13.8 29.1 13.2 29.6 12.6C30.1 12 30.6 11.5 31.3 11.1C31.9 10.7 32.6 10.4 33.4 10.2C34.2 10 35.1 9.9 36 9.9C37.4 9.9 38.6 10.1 39.7 10.6C40.8 11.1 41.7 11.7 42.4 12.6L39.5 15.6C39 15 38.5 14.6 37.9 14.3C37.3 14 36.6 13.8 35.9 13.8C35.2 13.8 34.6 13.9 34.1 14.2C33.6 14.5 33.1 14.8 32.8 15.3C32.5 15.7 32.2 16.3 32.1 16.9C31.9 17.5 31.9 18.1 31.9 18.8V18.9C31.9 19.6 32 20.3 32.1 20.9C32.3 21.5 32.5 22.1 32.9 22.6C33.2 23.1 33.7 23.4 34.2 23.7C34.7 24 35.4 24.1 36.1 24.1C37.1 24.1 37.9 23.9 38.5 23.6C39.1 23.3 39.7 22.8 40.2 22.2L43.1 24.8C42.9 25 42.8 25.2 42.6 25.3ZM26.9 22.1C26.6 22.8 26.3 23.5 25.8 24.1C25.3 24.7 24.8 25.2 24.1 25.6C23.5 26 22.8 26.3 22 26.5C21.2 26.7 20.3 26.8 19.4 26.8H12.1V7.2H19.8C21.5 7.2 22.9 7.5 24.1 8.1C25.3 8.7 26.2 9.5 26.9 10.6C27.6 11.7 27.9 13 27.9 14.6V14.7C27.9 16.3 27.6 17.6 26.9 18.8C26.8 18.9 26.7 19 26.7 19.1L27.5 19.5L26.9 20.4C26.9 20.9 26.9 21.6 26.9 22.1ZM22.9 14.7C22.9 13.7 22.6 12.9 21.9 12.3C21.2 11.7 20.3 11.4 19.1 11.4H16.7V22.7H19C20.3 22.7 21.3 22.4 22 21.8C22.7 21.2 23 20.4 23 19.3V14.7H22.9Z" fill="#221F1F"/>
</svg>
