<svg width="120" height="36" viewBox="0 0 120 36" fill="none" xmlns="http://www.w3.org/2000/svg">
  <path d="M41.5 18.5C41.5 14.9 44.6 12 48.3 12C51.9 12 55 14.9 55 18.5C55 22.1 51.9 25 48.3 25C44.6 25 41.5 22.1 41.5 18.5ZM51.8 18.5C51.8 16.5 50.3 14.9 48.3 14.9C46.3 14.9 44.8 16.5 44.8 18.5C44.8 20.5 46.3 22.1 48.3 22.1C50.3 22.1 51.8 20.5 51.8 18.5ZM31 14.6V16.9H36.8C36.6 18.3 36.1 19.3 35.3 20.1C34.4 20.9 32.9 21.9 31 21.9C27.9 21.9 25.4 19.3 25.4 16.2C25.4 13.1 27.9 10.5 31 10.5C32.7 10.5 33.9 11.2 34.9 12.1L36.5 10.5C35.2 9.2 33.5 8.3 31 8.3C26.7 8.3 23 11.8 23 16.2C23 20.6 26.7 24.1 31 24.1C33.4 24.1 35.2 23.3 36.6 21.8C38.1 20.4 38.6 18.4 38.6 16.8C38.6 16.3 38.6 15.8 38.5 15.5H31V14.6ZM76.7 16.5C76.2 15.3 74.9 14 72.9 14C70.9 14 69.2 15.3 69.2 17.3C69.2 19.1 70.8 20.1 72.1 20.7L73.2 21.2C74.1 21.5 74.8 22 74.8 22.6C74.8 23.4 73.9 24 72.8 24C71.7 24 71 23.5 70.6 22.5L70.5 22.3L68.4 23.2L68.5 23.4C69.2 25 70.8 26.1 72.8 26.1C75.2 26.1 77.1 24.6 77.1 22.5C77.1 20.6 75.6 19.6 73.9 18.8L72.8 18.3C72 18 71.4 17.6 71.4 16.9C71.4 16.2 72.1 15.7 72.9 15.7C73.8 15.7 74.3 16.1 74.6 16.7L74.7 16.9L76.6 16L76.7 16.5ZM83.3 26H86V12.3H83.3V26ZM83.2 10.8H86.1V8.5H83.2V10.8ZM93.4 26H96.1V18.2H102.4V15.8H96.1V12.7H103V10.3H93.4V26ZM89.2 10.5V26.1H91.9V10.5H89.2ZM119.4 10.5H114.6V26.1H117.3V20.3H119.5C121.7 20.3 123.9 18.8 123.9 15.4C123.9 12 121.7 10.5 119.4 10.5ZM119.5 18H117.3V12.8H119.5C120.9 12.8 121.8 14.1 121.8 15.4C121.8 16.7 120.9 18 119.5 18ZM109.9 10.5H107.2V26.1H109.9V10.5ZM58.3 17.8C58.3 21.6 61.5 25 65.6 25C67.4 25 68.7 24.3 69.5 23.5V24.6C69.5 26.5 68.2 27.8 66.2 27.8C64.6 27.8 63.6 26.9 63.2 26.1L63.1 25.9L60.7 26.9L60.8 27.1C61.6 28.8 63.5 30 66.2 30C69.4 30 71.9 27.8 71.9 24.1V14.4H69.5V15.5C68.7 14.7 67.4 14 65.6 14C61.5 14 58.3 17.4 58.3 21.2V17.8ZM69.6 21.2C69 22.1 67.9 22.9 66.5 22.9C64.5 22.9 62.9 21.2 62.9 19.5C62.9 17.7 64.5 16 66.5 16C67.9 16 69 16.8 69.6 17.7V21.2Z" fill="#221F1F"/>
</svg>
